# xmcd
#
# Track frame offsets: 
#        150
#        17338
#        32935
#        52756
#        69544
#        86577
#        113786
#        133758
#        150099
#        156043
#        183006
#        196975
#        200519
#        239503
#        259272
#
# Disc length: 3653 seconds
#
# Revision: 1
# Processed by: cddbd v1.5.2PL0 Copyright (c) Steve Scherf et al.
# Submitted via: ExactAudioCopy v0.99pb4
#
DISCID=bb0e430f
DTITLE=Sparta - Porcelain
DYEAR=2004
DGENRE=Emo
TTITLE0=Guns Of Memorial Park
TTITLE1=Hiss The Villain
TTITLE2=While Oceana Sleeps
TTITLE3=La Cerca
TTITLE4=Breaking The Broken
TTITLE5=Lines In The Sand
TTITLE6=End Moraine
TTITLE7=Death In The Family
TTITLE8=Syncope
TTITLE9=Tensioning
TTITLE10=Travel By Bloodline
TTITLE11=P.O.M.E.
TTITLE12=From Now To Never
TTITLE13=Splinters
TTITLE14=Farewell Ruins
EXTD=
EXTT0=
EXTT1=
EXTT2=
EXTT3=
EXTT4=
EXTT5=
EXTT6=
EXTT7=
EXTT8=
EXTT9=
EXTT10=
EXTT11=
EXTT12=
EXTT13=
EXTT14=
PLAYORDER=
